HIERARCHY
ROOT Hips
{
 OFFSET 0.000000 0.000000 0.000000
 CHANNELS 6 Xposition Yposition Zposition Yrotation Xrotation Zrotation
 JOINT Chest
 {
  OFFSET 0.000000 9.585900 0.002600
  CHANNELS 3 Yrotation Xrotation Zrotation
  JOINT Chest2
  {
   OFFSET 0.000000 9.601200 -0.005300
   CHANNELS 3 Yrotation Xrotation Zrotation
   JOINT Chest3
   {
    OFFSET 0.000000 9.561800 0.000000
    CHANNELS 3 Yrotation Xrotation Zrotation
    JOINT Chest4
    {
     OFFSET 0.000000 9.552100 0.000000
     CHANNELS 3 Yrotation Xrotation Zrotation
     JOINT Neck
     {
      OFFSET 0.000000 14.453000 0.000000
      CHANNELS 3 Yrotation Xrotation Zrotation
      JOINT Head
      {
       OFFSET 0.000000 8.936500 -0.011300
       CHANNELS 3 Yrotation Xrotation Zrotation
       End Site
       {
        OFFSET 0.000000 17.073600 -0.006000
       }
      }
     }
     JOINT RightCollar
     {
      OFFSET -2.921100 9.558500 0.000000
      CHANNELS 3 Yrotation Xrotation Zrotation
      JOINT RightShoulder
      {
       OFFSET -13.519700 0.000000 0.000000
       CHANNELS 3 Yrotation Xrotation Zrotation
       JOINT RightElbow
       {
        OFFSET 0.000000 -29.696600 0.000000
        CHANNELS 3 Yrotation Xrotation Zrotation
        JOINT RightWrist
        {
         OFFSET 0.000000 -24.004700 0.000000
         CHANNELS 3 Yrotation Xrotation Zrotation
         End Site
         {
          OFFSET 0.000000 -17.728500 0.000000
         }
        }
       }
      }
     }
     JOINT LeftCollar
     {
      OFFSET 2.921100 9.558500 0.000000
      CHANNELS 3 Yrotation Xrotation Zrotation
      JOINT LeftShoulder
      {
       OFFSET 13.519700 0.000000 0.000000
       CHANNELS 3 Yrotation Xrotation Zrotation
       JOINT LeftElbow
       {
        OFFSET 0.000000 -29.696600 0.000000
        CHANNELS 3 Yrotation Xrotation Zrotation
        JOINT LeftWrist
        {
         OFFSET 0.000000 -24.004700 0.000000
         CHANNELS 3 Yrotation Xrotation Zrotation
         End Site
         {
          OFFSET 0.000000 -17.728500 0.000000
         }
        }
       }
      }
     }
    }
   }
  }
 }
 JOINT RightHip
 {
  OFFSET -7.771700 -0.012900 -0.001300
  CHANNELS 3 Yrotation Xrotation Zrotation
  JOINT RightKnee
  {
   OFFSET 0.000000 -40.869800 0.001200
   CHANNELS 3 Yrotation Xrotation Zrotation
   JOINT RightAnkle
   {
    OFFSET 0.000000 -39.717900 0.002100
    CHANNELS 3 Yrotation Xrotation Zrotation
    JOINT RightToe
    {
     OFFSET 0.000000 -4.965400 11.033500
     CHANNELS 3 Yrotation Xrotation Zrotation
     End Site
     {
      OFFSET 0.000000 -1.423100 5.872300
     }
    }
   }
  }
 }
 JOINT LeftHip
 {
  OFFSET 7.771700 -0.012900 -0.001300
  CHANNELS 3 Yrotation Xrotation Zrotation
  JOINT LeftKnee
  {
   OFFSET 0.000000 -40.869800 0.001200
   CHANNELS 3 Yrotation Xrotation Zrotation
   JOINT LeftAnkle
   {
    OFFSET 0.000000 -39.717900 0.002100
    CHANNELS 3 Yrotation Xrotation Zrotation
    JOINT LeftToe
    {
     OFFSET 0.000000 -4.965400 11.033500
     CHANNELS 3 Yrotation Xrotation Zrotation
     End Site
     {
      OFFSET 0.000000 -1.423100 5.872300
     }
    }
   }
  }
 }
}
MOTION
Frames: 13
Frame Time: 0.008333
-140.163607 49.120767 18.619317 174.143500 -31.053525 -3.650510 0.736337 18.043168 2.421156 0.048547 2.020973 0.226815 0.090772 3.339652 0.368591 0.614239 15.758455 1.852356 5.998545 15.796209 -2.256874 11.967023 -5.993672 -6.335008 -2.281868 -2.303894 -2.220610 5.222359 -6.566579 -12.574846 -37.469603 -43.962935 90.126632 2.327138 3.021157 -14.225244 0.354204 -2.202446 2.213358 -8.071905 -1.847350 13.106772 70.709045 -68.097694 -110.098709 4.666264 10.514764 9.174401 -4.951019 -54.044176 -4.649462 -164.896365 84.385962 -152.446453 -30.517516 -2.125307 -4.722473 -0.055450 -12.256359 0.171511 -14.574319 -55.234682 21.219497 -75.575893 65.545288 -80.151309 30.601598 6.497578 14.888218 0.034096 -0.302041 0.011464
-140.163206 49.124536 18.624817 174.125160 -31.045268 -3.668803 0.776096 18.011343 2.431473 0.038213 2.035318 0.244245 0.111649 3.306676 0.344949 0.643290 15.734523 1.844417 6.318334 15.867348 -2.184301 12.528052 -5.835877 -6.303409 -2.312356 -2.258112 -2.194984 5.200930 -6.567182 -12.554920 -37.438827 -43.983127 90.059988 2.370630 2.992786 -14.173565 0.335839 -2.139918 2.243684 -8.122503 -1.937056 13.142222 70.989292 -68.229187 -110.225840 4.543875 10.739387 8.870430 -4.954851 -54.048989 -4.599969 -164.816261 84.403288 -152.369290 -30.521407 -2.098825 -4.723350 -0.025642 -12.260898 0.168958 -14.616820 -55.233675 21.271574 -75.584936 65.540768 -80.146553 30.593075 6.505632 14.855373 0.042791 -0.301367 0.022121
-140.169751 49.128363 18.629237 174.101816 -31.038899 -3.644938 0.795659 17.998408 2.413998 0.053447 2.012240 0.223898 0.121996 3.293379 0.342003 0.670152 15.709758 1.836931 6.656739 15.958911 -2.103698 13.118303 -5.638731 -6.260083 -2.354248 -2.203654 -2.158585 5.185542 -6.609205 -12.550981 -37.403288 -44.049049 89.954972 2.346888 2.975072 -14.097805 0.322291 -2.080232 2.275423 -8.151956 -2.035776 13.176034 71.339981 -68.393438 -110.402360 4.373187 10.991109 8.456637 -4.913783 -54.059350 -4.613408 -164.830309 84.421296 -152.391467 -30.552302 -2.080166 -4.717246 -0.014781 -12.260764 0.166238 -14.643631 -55.223531 21.256308 -75.534819 65.565585 -80.102693 30.615514 6.504263 14.838234 0.019288 -0.297683 0.014182
-140.175729 49.132508 18.633423 174.093250 -31.033472 -3.633661 0.823489 17.969355 2.388692 0.056846 2.004776 0.222126 0.128041 3.279844 0.341134 0.693293 15.684840 1.829598 7.007055 16.070990 -2.016273 13.725774 -5.402750 -6.204641 -2.397559 -2.147519 -2.124714 5.163967 -6.626385 -12.537866 -37.400558 -44.130500 89.905161 2.344306 2.961203 -14.054054 0.316575 -2.036545 2.307792 -8.143631 -2.133282 13.205872 71.750520 -68.577206 -110.633703 4.148480 11.261033 7.931419 -4.874457 -54.064654 -4.624817 -164.791663 84.438208 -152.356959 -30.578728 -2.063183 -4.707835 -0.020984 -12.257198 0.169916 -14.674285 -55.216733 21.244902 -75.500048 65.584158 -80.071053 30.624792 6.505273 14.827723 0.016499 -0.293245 0.003250
-140.181412 49.136676 18.637213 174.090699 -31.029166 -3.627470 0.846352 17.940337 2.367186 0.059860 1.996975 0.220318 0.136858 3.266379 0.340275 0.714450 15.660295 1.823005 7.361152 16.204551 -1.922315 14.335266 -5.127159 -6.134539 -2.439947 -2.089925 -2.094068 5.130684 -6.642645 -12.523854 -37.414122 -44.205708 89.893290 2.355619 2.948016 -14.041394 0.317544 -2.011467 2.342302 -8.085149 -2.223767 13.229163 72.215786 -68.776329 -110.928286 3.869012 11.533987 7.302640 -4.848679 -54.066463 -4.635545 -164.739944 84.449478 -152.308101 -30.577992 -2.051928 -4.705849 -0.017275 -12.253196 0.172329 -14.705048 -55.212512 21.237196 -75.464264 65.608082 -80.048183 30.642840 6.504217 14.832847 -0.006609 -0.294612 -0.007497
-140.184030 49.140209 18.641687 174.094779 -31.019895 -3.642269 0.904125 17.872898 2.358788 0.035132 2.019912 0.236970 0.140337 3.251667 0.341135 0.734328 15.636593 1.817475 7.711442 16.361015 -1.822776 14.932759 -4.810093 -6.048480 -2.484693 -2.024822 -2.060411 5.093347 -6.663551 -12.518543 -37.446977 -44.281619 89.909190 2.364020 2.932544 -14.042009 0.309222 -1.981660 2.379388 -7.956931 -2.322546 13.245555 72.735214 -68.994168 -111.297279 3.546119 11.790600 6.588179 -4.850039 -54.068936 -4.621444 -164.734040 84.458910 -152.307400 -30.522435 -2.037177 -4.715361 -0.009030 -12.250397 0.177810 -14.760633 -55.211537 21.262715 -75.462182 65.608194 -80.031719 30.611178 6.513223 14.812820 -0.005196 -0.291250 -0.014508
-140.185834 49.143846 18.644447 174.108545 -31.018893 -3.663163 0.928239 17.837932 2.371298 0.066796 1.976181 0.216072 0.105432 3.291038 0.362377 0.759305 15.602140 1.809202 8.051869 16.540625 -1.719593 15.507898 -4.451760 -5.947777 -2.527409 -1.959588 -2.034272 5.049273 -6.681928 -12.511326 -37.500038 -44.356395 89.954275 2.370092 2.907733 -14.047659 0.274638 -1.925875 2.415008 -7.741904 -2.443879 13.258273 73.289390 -69.220890 -111.730865 3.187752 12.001990 5.812038 -4.859847 -54.061372 -4.595253 -164.660034 84.480351 -152.225170 -30.596094 -2.034387 -4.717795 -0.004365 -12.243137 0.191324 -14.836372 -55.202553 21.286663 -75.478943 65.601049 -80.023584 30.606490 6.528029 14.760182 0.014203 -0.289846 -0.008062
-140.192358 49.147360 18.644047 174.135562 -31.029873 -3.656917 0.933796 17.813197 2.355009 0.059374 1.981329 0.215712 0.116755 3.270372 0.359828 0.748290 15.617717 1.812059 8.396453 16.710208 -1.631486 16.053370 -4.053444 -5.831712 -2.509379 -1.951846 -2.062112 4.982984 -6.667367 -12.466951 -37.596671 -44.439307 90.029677 2.370204 2.870252 -14.052031 0.328321 -1.992347 2.439702 -7.538653 -2.475678 13.246006 73.834072 -69.422486 -112.191964 2.793924 12.139717 5.004410 -4.831782 -54.045710 -4.643233 -164.750429 84.487606 -152.315759 -30.580711 -2.032544 -4.740999 -0.025144 -12.236949 0.223637 -14.884617 -55.189087 21.251716 -75.458881 65.632996 -80.017093 30.618556 6.532658 14.760222 -0.009266 -0.299408 -0.020822
-140.194189 49.150335 18.642985 174.160669 -31.044711 -3.672680 0.949622 17.790000 2.367240 0.033298 2.008835 0.215872 0.145751 3.228509 0.354529 0.771052 15.581103 1.808593 8.697931 16.950160 -1.510262 16.564520 -3.618141 -5.697586 -2.538327 -1.882399 -2.058282 4.928062 -6.659466 -12.442629 -37.705751 -44.523204 90.125638 2.362774 2.820421 -14.054794 0.316293 -1.987149 2.486808 -7.262250 -2.515634 13.227375 74.276191 -69.539073 -112.599792 2.376449 12.168295 4.195261 -4.803894 -54.020575 -4.663857 -164.664248 84.492905 -152.214529 -30.581215 -2.034479 -4.758375 -0.014237 -12.226386 0.250548 -14.951805 -55.168460 21.252954 -75.470212 65.651450 -80.020060 30.610964 6.537159 14.730481 -0.006170 -0.301573 -0.022355
-140.191517 49.153660 18.639600 174.183934 -31.074682 -3.708290 0.957252 17.800807 2.398128 0.051128 1.983403 0.213251 0.119612 3.259642 0.357210 0.821240 15.507945 1.803419 8.979902 17.210626 -1.385069 17.036426 -3.149999 -5.542289 -2.571059 -1.812327 -2.054686 4.862910 -6.664359 -12.420173 -37.801404 -44.596164 90.226582 2.345338 2.756724 -14.057488 0.293760 -1.962472 2.528101 -6.955664 -2.560963 13.210579 74.449503 -69.473361 -112.798996 1.966067 12.044407 3.407365 -4.837610 -53.981394 -4.627253 -164.569736 84.496670 -152.115710 -30.604499 -2.030014 -4.773207 0.031086 -12.229995 0.263834 -15.026887 -55.130253 21.277472 -75.546156 65.648928 -80.053703 30.572667 6.530551 14.646502 0.051222 -0.283746 -0.006718
-140.192467 49.154790 18.636489 174.207172 -31.094641 -3.718249 0.983782 17.774293 2.413996 0.043494 1.986261 0.211298 0.121324 3.251670 0.356347 0.830175 15.495966 1.806562 9.248431 17.473434 -1.262937 17.462723 -2.650265 -5.366106 -2.609647 -1.755985 -2.048817 4.830945 -6.684420 -12.410756 -37.835074 -44.619414 90.266773 2.337051 2.616624 -14.046717 0.283610 -1.942326 2.564633 -6.657495 -2.603171 13.191155 74.211677 -69.118680 -112.644463 1.634161 11.737219 2.655056 -4.847186 -53.959067 -4.632107 -164.481535 84.489480 -152.033468 -30.588914 -2.027439 -4.786292 -0.083083 -12.230674 0.307516 -15.046455 -55.109824 21.263598 -75.565594 65.652703 -80.065304 30.551436 6.523842 14.629238 0.067130 -0.275941 -0.004260
-140.194720 49.154356 18.633542 174.218108 -31.109556 -3.710581 1.014119 17.747122 2.419264 0.039480 1.984951 0.207577 0.122772 3.244283 0.355900 0.837273 15.494043 1.815036 9.492025 17.753243 -1.139676 17.841183 -2.122759 -5.176477 -2.617959 -1.722763 -2.059802 4.779733 -6.692927 -12.386128 -37.976299 -44.665779 90.382665 2.260298 2.512797 -14.021253 0.273918 -1.906943 2.600024 -6.387289 -2.642197 13.166032 73.537282 -68.406580 -112.105015 1.499658 11.233098 1.942492 -4.821186 -53.947218 -4.658025 -164.367862 84.477471 -151.927895 -30.559572 -2.025502 -4.803774 -0.044742 -12.226966 0.327424 -15.066716 -55.096072 21.232832 -75.569740 65.679486 -80.073257 30.564942 6.516613 14.621304 0.041865 -0.281055 -0.005139
-140.195633 49.154321 18.628678 174.230127 -31.137534 -3.707337 1.030879 17.749883 2.426661 0.045472 1.974642 0.204856 0.155348 3.212863 0.365489 0.809689 15.525649 1.817087 9.710962 18.044297 -1.021425 18.175112 -1.577229 -4.985832 -2.591090 -1.683761 -2.072445 4.704111 -6.730971 -12.365532 -38.097850 -44.671423 90.478868 2.178286 2.347586 -13.960610 0.263541 -1.860732 2.629234 -6.148131 -2.676075 13.131075 72.478333 -67.311382 -111.222497 1.656025 10.532557 1.253601 -4.801947 -53.926176 -4.664250 -164.094513 84.448921 -151.682090 -30.520274 -2.014337 -4.799647 -0.053985 -12.227078 0.352373 -15.122272 -55.063841 21.203931 -75.614506 65.710668 -80.097272 30.567251 6.504800 14.561695 0.049347 -0.275192 -0.002921
